<!DOCTYPE svg PUBLIC "-//W3C//DTD SVG 1.1//EN" "http://www.w3.org/Graphics/SVG/1.1/DTD/svg11.dtd">
<!-- Uploaded to: SVG Repo, www.svgrepo.com, Transformed by: SVG Repo Mixer Tools -->
<svg height="800px" width="800px" version="1.1" id="Layer_1" xmlns="http://www.w3.org/2000/svg" xmlns:xlink="http://www.w3.org/1999/xlink" viewBox="0 0 512 512" xml:space="preserve" fill="#000000">
<g id="SVGRepo_bgCarrier" stroke-width="0"/>
<g id="SVGRepo_tracerCarrier" stroke-linecap="round" stroke-linejoin="round"/>
<g id="SVGRepo_iconCarrier"> <polygon style="fill:#C6C3CB;" points="114.119,135.899 512,135.899 512,374.836 0,374.836 0,135.899 27.867,135.899 "/> <g> <path style="fill:#3E3B43;" d="M352.389,376.101v-27.167c0-4.329,3.508-7.837,7.837-7.837s7.837,3.508,7.837,7.837v27.167H352.389z "/> <path style="fill:#3E3B43;" d="M360.225,329.603c-4.329,0-7.837-3.508-7.837-7.837v-27.167c0-4.329,3.508-7.837,7.837-7.837 s7.837,3.508,7.837,7.837v27.167C368.062,326.095,364.554,329.603,360.225,329.603z"/> <path style="fill:#3E3B43;" d="M360.225,275.266c-4.329,0-7.837-3.508-7.837-7.837v-27.167c0-4.329,3.508-7.837,7.837-7.837 s7.837,3.508,7.837,7.837v27.167C368.062,271.758,364.554,275.266,360.225,275.266z"/> <path style="fill:#3E3B43;" d="M360.225,223.718c-4.329,0-7.837-3.508-7.837-7.837v-27.167c0-4.329,3.508-7.837,7.837-7.837 s7.837,3.508,7.837,7.837v27.167C368.062,220.21,364.554,223.718,360.225,223.718z"/> <path style="fill:#3E3B43;" d="M368.062,137.164v27.167c0,4.329-3.508,7.837-7.837,7.837s-7.837-3.508-7.837-7.837v-27.167H368.062 z"/> </g> <polygon style="fill:#77757E;" points="153.637,301.077 330.429,301.077 330.429,337.61 47.626,337.61 47.626,301.077 73.243,301.077 "/> <path style="fill:#376642;" d="M433.599,294.066c-2.005,0-4.011-0.765-5.541-2.295l-25.833-25.832 c-3.062-3.06-3.062-8.023-0.001-11.082c3.062-3.062,8.024-3.061,11.082-0.001l20.292,20.291l46.718-46.719 c3.062-3.059,8.023-3.059,11.083,0c3.06,3.062,3.06,8.023,0,11.083l-52.261,52.261C437.611,293.3,435.604,294.066,433.599,294.066z"/> <g> <path style="fill:#77757E;" d="M92.642,196.676c2.717,0,3.978,2.911,3.978,5.627c0,3.007-1.456,5.723-3.978,5.723H78.477v55.59 c0,2.62-3.202,3.977-6.306,3.977c-3.202,0-6.306-1.358-6.306-3.977v-55.59H51.604c-2.522,0-3.977-2.62-3.977-5.723 c0-2.717,1.261-5.627,3.977-5.627L92.642,196.676L92.642,196.676z"/> <path style="fill:#77757E;" d="M103.509,200.556c0-2.717,3.104-3.881,6.306-3.881c3.104,0,6.306,1.164,6.306,3.881v63.06 c0,2.62-3.202,3.977-6.306,3.977c-3.202,0-6.306-1.358-6.306-3.977C103.509,263.615,103.509,200.556,103.509,200.556z"/> <path style="fill:#77757E;" d="M149.882,207.735c-6.5,0-10.187,3.589-10.187,11.156v27.066c0,7.567,3.686,11.156,10.38,11.156 c8.828,0,9.605-6.306,9.896-10.381c0.194-3.007,2.91-3.977,6.209-3.977c4.366,0,6.403,1.261,6.403,6.209 c0,11.738-9.605,19.208-23.186,19.208c-12.223,0-22.313-6.014-22.313-22.217V218.89c0-16.202,10.187-22.217,22.41-22.217 c13.485,0,23.089,7.178,23.089,18.433c0,5.045-2.038,6.209-6.306,6.209c-3.589,0-6.209-1.067-6.306-3.977 C159.777,214.332,159.099,207.735,149.882,207.735z"/> <path style="fill:#77757E;" d="M181.122,200.556c0-2.717,3.104-3.881,6.306-3.881c3.104,0,6.306,1.164,6.306,3.881v26.485 l20.955-28.523c0.97-1.358,2.135-1.843,3.493-1.843c3.202,0,7.277,3.299,7.277,6.499c0,0.679-0.097,1.553-0.776,2.426 l-17.366,21.731l21.15,32.21c0.485,0.679,0.679,1.456,0.679,2.231c0,3.105-3.881,6.306-7.567,6.306 c-1.649,0-3.299-0.679-4.366-2.425l-18.239-27.649l-5.238,6.596v19.015c0,2.62-3.202,3.977-6.306,3.977 c-3.202,0-6.306-1.358-6.306-3.977v-63.06H181.122z"/> <path style="fill:#77757E;" d="M247.286,227.139h14.747c2.522,0,3.978,2.425,3.978,5.044c0,2.232-1.261,4.85-3.978,4.85h-14.747 v19.5h27.455c2.522,0,3.977,2.62,3.977,5.627c0,2.62-1.261,5.432-3.977,5.432h-34.537c-2.814,0-5.53-1.358-5.53-3.977v-62.962 c0-2.62,2.717-3.977,5.53-3.977h34.537c2.717,0,3.977,2.814,3.977,5.432c0,3.008-1.456,5.627-3.977,5.627h-27.455V227.139z"/> <path style="fill:#77757E;" d="M326.451,196.676c2.717,0,3.977,2.911,3.977,5.627c0,3.007-1.456,5.723-3.977,5.723h-14.164v55.59 c0,2.62-3.203,3.977-6.306,3.977c-3.202,0-6.306-1.358-6.306-3.977v-55.59h-14.261c-2.523,0-3.978-2.62-3.978-5.723 c0-2.717,1.261-5.627,3.978-5.627L326.451,196.676L326.451,196.676z"/> </g> </g>
</svg>